<svg xmlns="http://www.w3.org/2000/svg" xmlns:xlink="http://www.w3.org/1999/xlink" version="1.1" width="36" height="36" viewBox="0 0 256 256" xml:space="preserve">
<g style="stroke: none; stroke-width: 0; stroke-dasharray: none; stroke-linecap: butt; stroke-linejoin: miter; stroke-miterlimit: 10; fill: none; fill-rule: nonzero; opacity: 1;" transform="translate(1.4065934065934016 1.4065934065934016) scale(2.81 2.81)">
	<path d="M 70.217 31.461 c -4.825 -1.998 -4.825 -8.833 0 -10.832 c 0.685 -0.284 1.01 -1.069 0.726 -1.754 l -2.529 -6.104 c -0.284 -0.685 -1.069 -1.01 -1.754 -0.726 c -4.825 1.998 -9.658 -2.834 -7.659 -7.659 c 0.284 -0.685 -0.042 -1.47 -0.726 -1.754 L 52.17 0.102 c -0.685 -0.284 -1.47 0.042 -1.754 0.726 c -1.999 4.825 -8.833 4.825 -10.832 0 c -0.284 -0.685 -1.069 -1.01 -1.754 -0.726 l -6.105 2.529 C 31.041 2.915 30.716 3.7 31 4.385 c 1.998 4.825 -2.834 9.658 -7.66 7.66 c -0.685 -0.284 -1.47 0.042 -1.754 0.726 l -2.529 6.104 c -0.284 0.685 0.042 1.47 0.726 1.754 c 4.825 1.999 4.825 8.833 0 10.832 c -0.685 0.284 -1.01 1.069 -0.726 1.754 l 2.529 6.104 c 0.284 0.685 1.069 1.01 1.754 0.726 c 4.825 -1.999 9.658 2.834 7.659 7.66 c -0.284 0.685 0.042 1.47 0.726 1.754 l 6.104 2.529 c 0.685 0.284 1.47 -0.042 1.754 -0.726 c 1.999 -4.825 8.833 -4.825 10.832 0 c 0.284 0.685 1.069 1.01 1.754 0.726 l 6.104 -2.529 c 0.685 -0.284 1.01 -1.069 0.726 -1.754 c -1.999 -4.825 2.834 -9.658 7.66 -7.659 c 0.685 0.284 1.47 -0.042 1.754 -0.726 l 2.529 -6.104 C 71.227 32.53 70.901 31.745 70.217 31.461 z M 45 34.894 c -4.887 0 -8.849 -3.962 -8.849 -8.849 c 0 -4.887 3.962 -8.849 8.849 -8.849 s 8.849 3.962 8.849 8.849 C 53.849 30.932 49.887 34.894 45 34.894 z" style="stroke: none; stroke-width: 1; stroke-dasharray: none; stroke-linecap: butt; stroke-linejoin: miter; stroke-miterlimit: 10; fill: rgb(0,0,0); fill-rule: nonzero; opacity: 1;" transform=" matrix(1 0 0 1 0 0) " stroke-linecap="round"/>
	<path d="M 20.045 86.174 l 4.387 -0.389 c 0.433 -0.038 0.861 -0.056 1.286 -0.056 c 3.431 0 6.605 1.18 9.687 2.325 c 2.963 1.101 5.762 2.144 8.351 1.912 c 5.606 -0.49 21.621 -10.525 37.109 -20.229 c 1.977 -1.239 3.976 -2.492 5.982 -3.743 c 0.241 -0.15 0.345 -0.464 0.221 -0.67 c -3.093 -5.133 -7.883 -7.193 -12.206 -5.253 l -12.963 6.026 c -0.638 0.296 -0.885 1.075 -0.535 1.685 l 0 0 c 0.592 1.032 0.246 2.356 -0.785 2.95 c -8.022 4.619 -14.924 7.465 -21.101 8.699 c -0.143 0.029 -0.286 0.042 -0.427 0.042 c -1.062 0 -2.006 -0.783 -2.15 -1.896 c -0.15 -1.163 0.733 -2.195 1.881 -2.43 c 5.188 -1.06 11.006 -3.389 17.732 -7.102 l -0.739 -1.289 c -0.001 -0.002 -0.002 -0.004 -0.003 -0.006 c -1.911 -3.325 -3.852 -4.487 -6.705 -3.993 l -14.446 2.606 c -3.061 0.257 -5.568 -0.92 -7.784 -1.953 c -1.941 -0.904 -3.617 -1.693 -5.436 -1.524 l -1.356 0.121 V 86.174 z" style="stroke: none; stroke-width: 1; stroke-dasharray: none; stroke-linecap: butt; stroke-linejoin: miter; stroke-miterlimit: 10; fill: rgb(0,0,0); fill-rule: nonzero; opacity: 1;" transform=" matrix(1 0 0 1 0 0) " stroke-linecap="round"/>
	<path d="M 3.247 56.757 c -0.203 0 -0.367 0.165 -0.367 0.367 v 32.508 c 0 0.202 0.165 0.367 0.367 0.367 H 15.34 c 0.203 0 0.367 -0.165 0.367 -0.367 V 58.038 v -0.914 c 0 -0.202 -0.165 -0.367 -0.367 -0.367 H 3.247 z" style="stroke: none; stroke-width: 1; stroke-dasharray: none; stroke-linecap: butt; stroke-linejoin: miter; stroke-miterlimit: 10; fill: rgb(0,0,0); fill-rule: nonzero; opacity: 1;" transform=" matrix(1 0 0 1 0 0) " stroke-linecap="round"/>
</g>
</svg>