<svg width="36" height="36" viewBox="0 0 36 36" fill="none" xmlns="http://www.w3.org/2000/svg">
<path d="M25.5 21C25.8978 21 26.2794 20.842 26.5607 20.5607C26.842 20.2794 27 19.8978 27 19.5C27 19.1022 26.842 18.7206 26.5607 18.4393C26.2794 18.158 25.8978 18 25.5 18C25.1022 18 24.7206 18.158 24.4393 18.4393C24.158 18.7206 24 19.1022 24 19.5C24 19.8978 24.158 20.2794 24.4393 20.5607C24.7206 20.842 25.1022 21 25.5 21ZM25.5 27C25.8978 27 26.2794 26.842 26.5607 26.5607C26.842 26.2794 27 25.8978 27 25.5C27 25.1022 26.842 24.7206 26.5607 24.4393C26.2794 24.158 25.8978 24 25.5 24C25.1022 24 24.7206 24.158 24.4393 24.4393C24.158 24.7206 24 25.1022 24 25.5C24 25.8978 24.158 26.2794 24.4393 26.5607C24.7206 26.842 25.1022 27 25.5 27ZM19.5 19.5C19.5 19.8978 19.342 20.2794 19.0607 20.5607C18.7794 20.842 18.3978 21 18 21C17.6022 21 17.2206 20.842 16.9393 20.5607C16.658 20.2794 16.5 19.8978 16.5 19.5C16.5 19.1022 16.658 18.7206 16.9393 18.4393C17.2206 18.158 17.6022 18 18 18C18.3978 18 18.7794 18.158 19.0607 18.4393C19.342 18.7206 19.5 19.1022 19.5 19.5ZM19.5 25.5C19.5 25.8978 19.342 26.2794 19.0607 26.5607C18.7794 26.842 18.3978 27 18 27C17.6022 27 17.2206 26.842 16.9393 26.5607C16.658 26.2794 16.5 25.8978 16.5 25.5C16.5 25.1022 16.658 24.7206 16.9393 24.4393C17.2206 24.158 17.6022 24 18 24C18.3978 24 18.7794 24.158 19.0607 24.4393C19.342 24.7206 19.5 25.1022 19.5 25.5ZM10.5 21C10.8978 21 11.2794 20.842 11.5607 20.5607C11.842 20.2794 12 19.8978 12 19.5C12 19.1022 11.842 18.7206 11.5607 18.4393C11.2794 18.158 10.8978 18 10.5 18C10.1022 18 9.72064 18.158 9.43934 18.4393C9.15804 18.7206 9 19.1022 9 19.5C9 19.8978 9.15804 20.2794 9.43934 20.5607C9.72064 20.842 10.1022 21 10.5 21ZM10.5 27C10.8978 27 11.2794 26.842 11.5607 26.5607C11.842 26.2794 12 25.8978 12 25.5C12 25.1022 11.842 24.7206 11.5607 24.4393C11.2794 24.158 10.8978 24 10.5 24C10.1022 24 9.72064 24.158 9.43934 24.4393C9.15804 24.7206 9 25.1022 9 25.5C9 25.8978 9.15804 26.2794 9.43934 26.5607C9.72064 26.842 10.1022 27 10.5 27Z" fill="#333333"/>
<path fill-rule="evenodd" clip-rule="evenodd" d="M10.5005 2.625C10.7988 2.625 11.085 2.74353 11.2959 2.9545C11.5069 3.16548 11.6255 3.45163 11.6255 3.75V4.8945C12.6185 4.875 13.712 4.875 14.915 4.875H21.0845C22.289 4.875 23.3825 4.875 24.3755 4.8945V3.75C24.3755 3.45163 24.494 3.16548 24.705 2.9545C24.9159 2.74353 25.2021 2.625 25.5005 2.625C25.7988 2.625 26.085 2.74353 26.2959 2.9545C26.5069 3.16548 26.6255 3.45163 26.6255 3.75V4.9905C27.0155 5.0205 27.385 5.0585 27.734 5.1045C29.492 5.3415 30.9155 5.8395 32.039 6.9615C33.161 8.085 33.659 9.5085 33.896 11.2665C34.1255 12.9765 34.1255 15.159 34.1255 17.916V21.084C34.1255 23.841 34.1255 26.025 33.896 27.7335C33.659 29.4915 33.161 30.915 32.039 32.0385C30.9155 33.1605 29.492 33.6585 27.734 33.8955C26.024 34.125 23.8415 34.125 21.0845 34.125H14.918C12.161 34.125 9.97695 34.125 8.26845 33.8955C6.51045 33.6585 5.08695 33.1605 3.96345 32.0385C2.84145 30.915 2.34345 29.4915 2.10645 27.7335C1.87695 26.0235 1.87695 23.841 1.87695 21.084V17.916C1.87695 15.159 1.87695 12.975 2.10645 11.2665C2.34345 9.5085 2.84145 8.085 3.96345 6.9615C5.08695 5.8395 6.51045 5.3415 8.26845 5.1045C8.61845 5.0585 8.98795 5.0205 9.37695 4.9905V3.75C9.37695 3.45189 9.49527 3.16597 9.70593 2.95503C9.91658 2.7441 10.2023 2.6254 10.5005 2.625ZM8.56545 7.335C7.05795 7.5375 6.18795 7.9185 5.55345 8.553C4.91895 9.1875 4.53795 10.0575 4.33545 11.565C4.30145 11.82 4.27245 12.0895 4.24845 12.3735H31.7525C31.7285 12.0895 31.6995 11.8195 31.6655 11.5635C31.463 10.056 31.082 9.186 30.4475 8.5515C29.813 7.917 28.943 7.536 27.434 7.3335C25.8935 7.1265 23.861 7.1235 21.0005 7.1235H15.0005C12.14 7.1235 10.109 7.128 8.56545 7.335ZM4.12545 18C4.12545 16.719 4.12545 15.6045 4.14495 14.625H31.856C31.8755 15.6045 31.8755 16.719 31.8755 18V21C31.8755 23.8605 31.8725 25.893 31.6655 27.435C31.463 28.9425 31.082 29.8125 30.4475 30.447C29.813 31.0815 28.943 31.4625 27.434 31.665C25.8935 31.872 23.861 31.875 21.0005 31.875H15.0005C12.14 31.875 10.109 31.872 8.56545 31.665C7.05795 31.4625 6.18795 31.0815 5.55345 30.447C4.91895 29.8125 4.53795 28.9425 4.33545 27.4335C4.12845 25.893 4.12545 23.8605 4.12545 21V18Z" fill="#333333"/>
</svg>
