 <svg width="32" height="32" viewBox="0 0 32 32" fill="none" xmlns="http://www.w3.org/2000/svg">
            <path d="M6.6665 6.6665H23.9998C25.0607 6.6665 26.0781 7.08793 26.8283 7.83808C27.5784 8.58822 27.9998 9.60564 27.9998 10.6665V22.6665C27.9998 23.7274 27.5784 24.7448 26.8283 25.4949C26.0781 26.2451 25.0607 26.6665 23.9998 26.6665H6.6665C5.60564 26.6665 4.58822 26.2451 3.83808 25.4949C3.08793 24.7448 2.6665 23.7274 2.6665 22.6665V10.6665C2.6665 9.60564 3.08793 8.58822 3.83808 7.83808C4.58822 7.08793 5.60564 6.6665 6.6665 6.6665ZM6.6665 7.99984C5.99984 7.99984 5.41317 8.2265 4.95984 8.6265L15.3332 15.3332L25.7065 8.6265C25.2532 8.2265 24.6665 7.99984 23.9998 7.99984H6.6665ZM15.3332 16.9465L4.17317 9.7065C4.0665 9.99984 3.99984 10.3332 3.99984 10.6665V22.6665C3.99984 23.3737 4.28079 24.052 4.78089 24.5521C5.28098 25.0522 5.95926 25.3332 6.6665 25.3332H23.9998C24.7071 25.3332 25.3854 25.0522 25.8855 24.5521C26.3856 24.052 26.6665 23.3737 26.6665 22.6665V10.6665C26.6665 10.3332 26.5998 9.99984 26.4932 9.7065L15.3332 16.9465Z" fill="#000E10"/>
            </svg>