    <svg width="32" height="33" viewBox="0 0 32 33" fill="none" xmlns="http://www.w3.org/2000/svg">
      <path fill-rule="evenodd" clip-rule="evenodd" d="M15.9316 2.47656L16.0682 2.47656C18.9959 2.47655 21.2839 2.47654 23.0677 2.71636C24.8909 2.96149 26.3199 3.47172 27.4401 4.5919C28.5603 5.71208 29.0705 7.14107 29.3156 8.96429C29.5555 10.7481 29.5555 13.0361 29.5554 15.9638V16.1004C29.5555 19.0281 29.5555 21.3161 29.3156 23.1C29.0705 24.9232 28.5603 26.3522 27.4401 27.4723C26.3199 28.5925 24.8909 29.1027 23.0677 29.3479C21.2839 29.5877 18.9959 29.5877 16.0682 29.5877H15.9316C13.0039 29.5877 10.7159 29.5877 8.93206 29.3479C7.10884 29.1027 5.67986 28.5925 4.55968 27.4723C3.4395 26.3522 2.92926 24.9232 2.68414 23.1C2.44431 21.3161 2.44432 19.0281 2.44434 16.1004L2.44434 15.9638C2.44432 13.0361 2.44431 10.7481 2.68414 8.96429C2.92926 7.14107 3.4395 5.71208 4.55968 4.5919C5.67986 3.47172 7.10884 2.96149 8.93206 2.71636C10.7159 2.47654 13.0039 2.47655 15.9316 2.47656ZM9.16895 4.47829C7.54286 4.69691 6.55157 5.11417 5.81675 5.84898C5.08194 6.58379 4.66468 7.57509 4.44606 9.20117C4.224 10.8528 4.22211 13.0214 4.22211 16.0321C4.22211 19.0428 4.224 21.2114 4.44606 22.8631C4.66468 24.4892 5.08194 25.4804 5.81675 26.2153C6.55157 26.9501 7.54286 27.3673 9.16895 27.5859C10.8206 27.808 12.9892 27.8099 15.9999 27.8099C19.0106 27.8099 21.1792 27.808 22.8308 27.5859C24.4569 27.3673 25.4482 26.9501 26.183 26.2153C26.9178 25.4804 27.3351 24.4892 27.5537 22.8631C27.7758 21.2114 27.7777 19.0428 27.7777 16.0321C27.7777 13.0214 27.7758 10.8528 27.5537 9.20117C27.3351 7.57509 26.9178 6.58379 26.183 5.84898C25.4482 5.11417 24.4569 4.69691 22.8308 4.47829C21.1792 4.25623 19.0106 4.25434 15.9999 4.25434C12.9892 4.25434 10.8206 4.25623 9.16895 4.47829Z" fill="#333333"/>
      <path fill-rule="evenodd" clip-rule="evenodd" d="M21.2705 9.81006L22.6666 9.81006C23.1575 9.81006 23.5554 10.208 23.5554 10.6989C23.5554 11.1899 23.1575 11.5878 22.6666 11.5878H21.3332C20.051 11.5878 19.1788 11.5897 18.5256 11.6775C17.898 11.7619 17.6073 11.9107 17.4095 12.1085C17.2116 12.3064 17.0629 12.5971 16.9785 13.2247C16.8907 13.8778 16.8888 14.7501 16.8888 16.0323V17.8101H19.9999C20.4908 17.8101 20.8888 18.208 20.8888 18.6989C20.8888 19.1899 20.4908 19.5878 19.9999 19.5878H16.8888V28.6989C16.8888 29.1899 16.4908 29.5878 15.9999 29.5878C15.509 29.5878 15.111 29.1899 15.111 28.6989L15.111 19.5878H13.3332C12.8423 19.5878 12.4443 19.1899 12.4443 18.6989C12.4443 18.208 12.8423 17.8101 13.3332 17.8101H15.111L15.111 15.9695C15.111 14.7659 15.1109 13.7733 15.2166 12.9878C15.3274 12.163 15.5692 11.4347 16.1524 10.8515C16.7356 10.2683 17.464 10.0265 18.2887 9.91562C19.0743 9.81 20.0668 9.81003 21.2705 9.81006Z" fill="#333333"/>
      </svg>