<svg width="32" height="33" viewBox="0 0 32 33" fill="none" xmlns="http://www.w3.org/2000/svg">
<path fill-rule="evenodd" clip-rule="evenodd" d="M9.16831 4.47825C7.54219 4.69684 6.55106 5.11403 5.81643 5.84866C5.08184 6.58325 4.66462 7.57467 4.44603 9.20103C4.224 10.8529 4.22211 13.0217 4.22211 16.0321C4.22211 19.0432 4.224 21.212 4.44602 22.8637C4.66461 24.4898 5.0818 25.481 5.81643 26.2156C6.55102 26.9502 7.54244 27.3674 9.1688 27.586C10.8207 27.808 12.9894 27.8099 15.9999 27.8099C19.011 27.8099 21.1798 27.808 22.8315 27.586C24.4576 27.3674 25.4487 26.9502 26.1834 26.2156C26.9179 25.481 27.3352 24.4896 27.5538 22.8632C27.7758 21.2114 27.7777 19.0426 27.7777 16.0321C27.7777 13.021 27.7758 10.8522 27.5538 9.20054C27.3352 7.57442 26.918 6.58329 26.1834 5.84866C25.4488 5.11407 24.4573 4.69685 22.831 4.47825C21.1791 4.25623 19.0103 4.25434 15.9999 4.25434C12.9888 4.25434 10.82 4.25623 9.16831 4.47825ZM15.9316 2.47656H16.0682C18.9957 2.47655 21.2838 2.47654 23.0678 2.71632C24.8911 2.96139 26.3204 3.4715 27.4404 4.59158C28.5605 5.71162 29.0706 7.14049 29.3157 8.9637C29.5555 10.7475 29.5555 13.0357 29.5555 15.9638V16.1004C29.5555 19.0279 29.5555 21.3161 29.3157 23.1C29.0706 24.9233 28.5605 26.3526 27.4404 27.4727C26.3204 28.5927 24.8915 29.1028 23.0683 29.3479C21.2845 29.5877 18.9963 29.5877 16.0682 29.5877H15.9316C13.0041 29.5877 10.7159 29.5877 8.93198 29.3479C7.10868 29.1029 5.67943 28.5927 4.55935 27.4727C3.43932 26.3526 2.92917 24.9238 2.68409 23.1005C2.44431 21.3167 2.44432 19.0286 2.44434 16.1004V15.9639C2.44432 13.0364 2.44431 10.7482 2.68409 8.96421C2.92916 7.1409 3.43928 5.71166 4.55935 4.59158C5.67939 3.47154 7.10826 2.9614 8.93147 2.71632C10.7153 2.47654 13.0035 2.47655 15.9316 2.47656Z" fill="#333333"/>
<path fill-rule="evenodd" clip-rule="evenodd" d="M22.4415 8.69895C22.4415 8.20803 22.8395 7.81006 23.3304 7.81006H23.3437C23.8346 7.81006 24.2326 8.20803 24.2326 8.69895C24.2326 9.18987 23.8346 9.58784 23.3437 9.58784H23.3304C22.8395 9.58784 22.4415 9.18987 22.4415 8.69895ZM15.9997 10.9212C14.6442 10.9212 13.3441 11.4597 12.3856 12.4182C11.4271 13.3767 10.8886 14.6767 10.8886 16.0323C10.8886 17.3878 11.4271 18.6879 12.3856 19.6464C13.3441 20.6049 14.6442 21.1434 15.9997 21.1434C17.3553 21.1434 18.6553 20.6049 19.6138 19.6464C20.5723 18.6879 21.1108 17.3878 21.1108 16.0323C21.1108 14.6767 20.5723 13.3767 19.6138 12.4182C18.6553 11.4597 17.3553 10.9212 15.9997 10.9212ZM11.1285 11.1611C12.4205 9.86918 14.1727 9.14339 15.9997 9.14339C17.8268 9.14339 19.579 9.86918 20.8709 11.1611C22.1628 12.453 22.8886 14.2052 22.8886 16.0323C22.8886 17.8593 22.1628 19.6115 20.8709 20.9035C19.579 22.1954 17.8268 22.9212 15.9997 22.9212C14.1727 22.9212 12.4205 22.1954 11.1285 20.9035C9.83663 19.6115 9.11084 17.8593 9.11084 16.0323C9.11084 14.2052 9.83663 12.453 11.1285 11.1611Z" fill="#333333"/>
</svg>
