  <svg width="22" height="26" viewBox="0 0 22 26" fill="none" xmlns="http://www.w3.org/2000/svg">
            <path d="M11.7469 24.76C11.5293 24.9163 11.2681 25.0003 11.0002 25.0003C10.7323 25.0003 10.4711 24.9163 10.2535 24.76C3.81486 20.1707 -3.01847 10.7307 3.88953 3.90933C5.78598 2.0438 8.33998 0.998832 11.0002 1C13.6669 1 16.2255 2.04667 18.1109 3.908C25.0189 10.7293 18.1855 20.168 11.7469 24.76Z" stroke="#000E10" stroke-width="1.5" stroke-linecap="round" stroke-linejoin="round"/>
            <path d="M11.0002 13C11.7074 13 12.3857 12.719 12.8858 12.219C13.3859 11.7189 13.6669 11.0406 13.6669 10.3333C13.6669 9.62609 13.3859 8.94781 12.8858 8.44772C12.3857 7.94762 11.7074 7.66667 11.0002 7.66667C10.293 7.66667 9.61467 7.94762 9.11458 8.44772C8.61448 8.94781 8.33353 9.62609 8.33353 10.3333C8.33353 11.0406 8.61448 11.7189 9.11458 12.219C9.61467 12.719 10.293 13 11.0002 13Z" stroke="#000E10" stroke-width="1.5" stroke-linecap="round" stroke-linejoin="round"/>
            </svg>