<svg width="36" height="36" viewBox="0 0 36 36" fill="none" xmlns="http://www.w3.org/2000/svg">
<path fill-rule="evenodd" clip-rule="evenodd" d="M17.9994 12.3751C20.2376 12.3727 22.4755 12.4226 24.7114 12.5248L24.7114 12.5248C27.7997 12.666 30.3054 15.0576 30.7129 18.0824C30.9355 19.7331 31.125 21.4673 31.125 23.2501C31.125 25.0328 30.9355 26.7671 30.7129 28.4178C30.3055 31.4422 27.8001 33.8341 24.7116 33.9739C22.5696 34.0737 20.3939 34.1251 18 34.1251C15.6058 34.1251 13.4301 34.0737 11.2884 33.9754L11.34 32.8516L11.2886 33.9754C11.2885 33.9754 11.2885 33.9754 11.2884 33.9754C8.20024 33.8341 5.69467 31.4426 5.28709 28.4179L6.40198 28.2676L5.28707 28.4178C5.06446 26.7671 4.875 25.0328 4.875 23.2501C4.875 21.4676 5.06287 19.7336 5.28723 18.0812C5.69519 15.0574 8.20028 12.666 11.2885 12.5263C13.4302 12.4265 15.6058 12.3751 17.9994 12.3751ZM17.9994 12.3751C17.9996 12.3751 17.9998 12.3751 18 12.3751V13.4998L17.9988 12.3751C17.999 12.3751 17.9992 12.3751 17.9994 12.3751ZM24.6086 14.7724C22.4076 14.6718 20.2045 14.6227 18.0012 14.6251L18 14.6251C15.6392 14.6251 13.4982 14.6757 11.3924 14.7739L11.3907 14.7739C9.42766 14.8625 7.78441 16.3975 7.51693 18.3828L7.51677 18.3839C7.29713 20.0016 7.125 21.6185 7.125 23.2501C7.125 24.8813 7.29853 26.498 7.51691 28.1172L7.51693 28.1174C7.7844 30.1026 9.4277 31.638 11.3914 31.7278L11.3916 31.7278C13.4979 31.8245 15.6392 31.8751 18 31.8751C20.3608 31.8751 22.5018 31.8245 24.6076 31.7263L24.6093 31.7262C26.5723 31.6376 28.2156 30.1027 28.4831 28.1174L28.4831 28.1172C28.7015 26.498 28.875 24.8813 28.875 23.2501C28.875 21.6189 28.7015 20.0022 28.4831 18.3829L28.4831 18.3828C28.2156 16.3976 26.5723 14.8622 24.6086 14.7724ZM24.6086 14.7724L24.66 13.6486L24.6086 14.7724Z" fill="#333333"/>
<path fill-rule="evenodd" clip-rule="evenodd" d="M18 4.125C16.5082 4.125 15.0774 4.71763 14.0225 5.77252C12.9676 6.82742 12.375 8.25816 12.375 9.75V13.5C12.375 14.1213 11.8713 14.625 11.25 14.625C10.6287 14.625 10.125 14.1213 10.125 13.5V9.75C10.125 7.66142 10.9547 5.65838 12.4315 4.18153C13.9084 2.70469 15.9114 1.875 18 1.875C20.0886 1.875 22.0916 2.70469 23.5685 4.18153C25.0453 5.65838 25.875 7.66142 25.875 9.75V13.5C25.875 14.1213 25.3713 14.625 24.75 14.625C24.1287 14.625 23.625 14.1213 23.625 13.5V9.75C23.625 8.25816 23.0324 6.82742 21.9775 5.77252C20.9226 4.71763 19.4918 4.125 18 4.125ZM12 22.11C12.6213 22.11 13.125 22.6137 13.125 23.235V23.25C13.125 23.8713 12.6213 24.375 12 24.375C11.3787 24.375 10.875 23.8713 10.875 23.25V23.235C10.875 22.6137 11.3787 22.11 12 22.11ZM18 22.11C18.6213 22.11 19.125 22.6137 19.125 23.235V23.25C19.125 23.8713 18.6213 24.375 18 24.375C17.3787 24.375 16.875 23.8713 16.875 23.25V23.235C16.875 22.6137 17.3787 22.11 18 22.11ZM24 22.11C24.6213 22.11 25.125 22.6137 25.125 23.235V23.25C25.125 23.8713 24.6213 24.375 24 24.375C23.3787 24.375 22.875 23.8713 22.875 23.25V23.235C22.875 22.6137 23.3787 22.11 24 22.11Z" fill="#333333"/>
</svg>
