<svg width="32" height="32" viewBox="0 0 32 32" fill="none" xmlns="http://www.w3.org/2000/svg">
            <path fill-rule="evenodd" clip-rule="evenodd" d="M9.33331 5.16927C9.2613 5.16927 9.19 5.1835 9.12351 5.21113C9.05702 5.23877 8.99664 5.27927 8.94584 5.33031L8.94467 5.33148C7.8164 6.45952 7.13298 7.95674 7.01992 9.54817C6.90687 11.1396 7.37175 12.7183 8.32919 13.9945C8.32917 13.9945 8.32921 13.9946 8.32919 13.9945L9.90519 16.0945C11.6108 18.3687 13.6311 20.3891 15.9053 22.0947L18.0054 23.6708C18.0054 23.6707 18.0054 23.6708 18.0054 23.6708C19.2816 24.6282 20.8604 25.0931 22.4518 24.9801C24.0433 24.867 25.5405 24.1836 26.6685 23.0553L26.6697 23.0542C26.7207 23.0034 26.7612 22.943 26.7889 22.8765C26.8165 22.81 26.8307 22.7387 26.8307 22.6667C26.8307 22.5947 26.8165 22.5234 26.7889 22.4569C26.7612 22.3904 26.7207 22.33 26.6697 22.2792L26.6686 22.2781L24.276 19.8855V19.8881L23.1376 18.7485C23.0757 18.6865 23.0022 18.6374 22.9213 18.6038C22.8403 18.5702 22.7536 18.553 22.666 18.553C22.5784 18.553 22.4916 18.5702 22.4107 18.6038C22.3298 18.6374 22.2562 18.6865 22.1943 18.7485L20.8364 20.1064C20.836 20.1068 20.8355 20.1073 20.8351 20.1077C20.6309 20.3135 20.3667 20.4493 20.0805 20.4958C19.7942 20.5423 19.5006 20.4969 19.2417 20.3663C15.9494 18.72 13.2799 16.0504 11.6336 12.7581C11.5031 12.4992 11.4578 12.2057 11.5042 11.9195C11.5507 11.6333 11.6865 11.3691 11.8923 11.1649C11.8927 11.1645 11.8932 11.164 11.8936 11.1636L13.2525 9.8047C13.2525 9.80472 13.2525 9.80467 13.2525 9.8047C13.3774 9.67968 13.4477 9.51011 13.4477 9.33336C13.4477 9.15662 13.3775 8.98711 13.2526 8.8621C13.2526 8.86208 13.2526 8.86213 13.2526 8.8621L9.72191 5.33143L9.72078 5.33031C9.66999 5.27927 9.60961 5.23877 9.54311 5.21113C9.47662 5.1835 9.40532 5.16927 9.33331 5.16927ZM22.9426 17.2389V16.6666L27.6103 21.3342C27.6101 21.334 27.6105 21.3344 27.6103 21.3342C27.7855 21.5087 27.9252 21.7168 28.0201 21.9452C28.1151 22.1739 28.1641 22.4191 28.1641 22.6667C28.1641 22.9143 28.1151 23.1595 28.0201 23.3882C27.9252 23.6166 27.7861 23.8241 27.6109 23.9986C26.2559 25.3536 24.4577 26.1743 22.5463 26.3101C20.6347 26.4459 18.7382 25.8874 17.2052 24.7373L15.1053 23.1614C15.1053 23.1613 15.1054 23.1614 15.1053 23.1614C12.7301 21.38 10.62 19.2699 8.83865 16.8947L7.26277 14.7949C6.11264 13.2619 5.55414 11.3653 5.68994 9.45369C5.82572 7.5423 6.64645 5.74405 8.00142 4.38912C8.17597 4.21389 8.3834 4.07483 8.6118 3.9799C8.84047 3.88486 9.08567 3.83594 9.33331 3.83594C9.58095 3.83594 9.82615 3.88486 10.0548 3.9799C10.2832 4.07484 10.4907 4.21392 10.6653 4.38916C10.6651 4.38897 10.6655 4.38936 10.6653 4.38916L14.1954 7.91929C14.5703 8.29435 14.781 8.80303 14.781 9.33336C14.781 9.86369 14.5704 10.3723 14.1955 10.7474L12.8341 12.1088L12.8317 12.1111C12.8257 12.1171 12.8217 12.1248 12.8203 12.1332C12.819 12.1415 12.8203 12.1501 12.8241 12.1576L12.8256 12.1606C14.343 15.1959 16.8041 17.657 19.8394 19.1744L19.8424 19.1759C19.8499 19.1797 19.8585 19.181 19.8669 19.1797C19.8752 19.1783 19.8829 19.1744 19.8889 19.1683L19.8912 19.166L21.251 17.8062" fill="#000E10"/>
            </svg>