<svg width="36" height="36" viewBox="0 0 36 36" fill="none" xmlns="http://www.w3.org/2000/svg">
<path d="M18 3C9.7155 3 3 9.7155 3 18C3 26.2845 9.7155 33 18 33C26.2845 33 33 26.2845 33 18C33 9.7155 26.2845 3 18 3Z" stroke="#333333" stroke-width="1.8" stroke-linecap="round" stroke-linejoin="round"/>
<path d="M6.40625 27.519C6.40625 27.519 9.74975 23.25 17.9998 23.25C26.2498 23.25 29.5947 27.519 29.5947 27.519M17.9998 18C19.1932 18 20.3378 17.5259 21.1817 16.682C22.0256 15.8381 22.4998 14.6935 22.4998 13.5C22.4998 12.3065 22.0256 11.1619 21.1817 10.318C20.3378 9.47411 19.1932 9 17.9998 9C16.8063 9 15.6617 9.47411 14.8178 10.318C13.9739 11.1619 13.4998 12.3065 13.4998 13.5C13.4998 14.6935 13.9739 15.8381 14.8178 16.682C15.6617 17.5259 16.8063 18 17.9998 18Z" stroke="#333333" stroke-width="1.8" stroke-linecap="round" stroke-linejoin="round"/>
</svg>
